PathFileType	4	(X/Y/Z)	C:\Users\Basilio\Documents\Thesis Gigler\squatting_fais\c3dfiles\041\SLS_pre_front1\markers_experimental.trc
DataRate	CameraRate	NumFrames	NumMarkers	Units	OrigDataRate	OrigDataStartFrame	OrigNumFrames
200.000000	200.000000	4	62	mm	200.000000	758	1517
Frame#	Time	FHD			LBHD			RBHD			C7			T10			CLAV			LSHO			LUUPA			LMUPA			LDUPA			LLEP			LMEP			LRAD			LUL			LRFIN			RSHO			RUPA1			RMUPA			RDUPA			RLEP			RMEP			RRAD			RUL			RUFIN			LASI			RASI			USACR			LSACR			RSACR			LTHI1			LTHI2			LTHI3			LTHI4			LLFC			LMFC			LTIB1			LTIB2			LTIB3			LTIB4			LLMAL			LMMAL			LHEE			LMT1			LMT2			LMT5			RTHI			RTHI2			RTHI3			RTHI4			RLFC			RMFC			RTIB1			RTIB2			RTIB3			RTIB4			RLMAL			RMMAL			RHEE			RMT1			RMT2			RMT5			*61			
		X1	Y1	Z1	X2	Y2	Z2	X3	Y3	Z3	X4	Y4	Z4	X5	Y5	Z5	X6	Y6	Z6	X7	Y7	Z7	X8	Y8	Z8	X9	Y9	Z9	X10	Y10	Z10	X11	Y11	Z11	X12	Y12	Z12	X13	Y13	Z13	X14	Y14	Z14	X15	Y15	Z15	X16	Y16	Z16	X17	Y17	Z17	X18	Y18	Z18	X19	Y19	Z19	X20	Y20	Z20	X21	Y21	Z21	X22	Y22	Z22	X23	Y23	Z23	X24	Y24	Z24	X25	Y25	Z25	X26	Y26	Z26	X27	Y27	Z27	X28	Y28	Z28	X29	Y29	Z29	X30	Y30	Z30	X31	Y31	Z31	X32	Y32	Z32	X33	Y33	Z33	X34	Y34	Z34	X35	Y35	Z35	X36	Y36	Z36	X37	Y37	Z37	X38	Y38	Z38	X39	Y39	Z39	X40	Y40	Z40	X41	Y41	Z41	X42	Y42	Z42	X43	Y43	Z43	X44	Y44	Z44	X45	Y45	Z45	X46	Y46	Z46	X47	Y47	Z47	X48	Y48	Z48	X49	Y49	Z49	X50	Y50	Z50	X51	Y51	Z51	X52	Y52	Z52	X53	Y53	Z53	X54	Y54	Z54	X55	Y55	Z55	X56	Y56	Z56	X57	Y57	Z57	X58	Y58	Z58	X59	Y59	Z59	X60	Y60	Z60	X61	Y61	Z61	X62	Y62	Z62	

759	3.79	-192.0540618896485	1553.227416992188	-1108.449462890625	-365.5960083007813	1479.602294921875	-1184.110595703125	-348.2739562988282	1488.711303710938	-1032.095581054688	-410.6785888671876	1361.568115234375	-1110.8017578125	-544.1975708007814	1088.822387695313	-1067.067016601563	-266.0069885253907	1276.077880859375	-1109.903686523438	-338.3210754394532	1356.9658203125	-1243.427124023438	-244.3332672119141	1362.529541015625	-1377.885986328125	-201.4732666015626	1377.662841796875	-1362.705810546875	-190.2295837402344	1365.4208984375	-1421.900634765625	-148.2862548828125	1363.566284179688	-1441.933837890625	-98.08470153808597	1301.78515625	-1408.422485351563	111.8783264160157	1416.258911132813	-1517.929077148438	74.94911956787111	1413.94580078125	-1581.242065429688	170.707763671875	1459.843872070313	-1549.87548828125	-318.6530761718751	1383.589477539063	-997.673767089844	-175.8143157958985	1397.09619140625	-884.4892578125002	-158.634765625	1420.446533203125	-927.045104980469	-109.8463211059571	1421.671997070313	-892.3211669921877	-65.82863616943361	1426.737426757813	-894.1325683593752	-40.15451049804688	1348.041015625	-913.1035766601565	200.4087524414063	1448.796752929688	-929.1855468750002	187.5733337402344	1471.658569335938	-859.9439086914065	280.8382568359376	1474.840209960938	-926.350280761719	-413.965057373047	877.038024902344	-1152.80322265625	-422.3309936523439	890.8571777343752	-928.6683349609377	-591.4733886718751	958.2603149414065	-1049.7744140625	-607.2023315429689	930.944519042969	-1076.6455078125	-611.1161499023439	932.933044433594	-1022.297058105469	-417.1580200195314	682.1037597656251	-1209.957641601563	-337.0509338378907	653.0137329101564	-1205.265625	-304.6029052734376	686.3347778320314	-1197.848510742188	-319.8711853027344	594.9346313476564	-1191.6669921875	-195.1428375244141	481.9811096191407	-1162.259887695313	-191.9054718017578	481.1579895019532	-1045.947875976563	-224.6009979248047	306.6163940429688	-1080.660522460938	-283.2776489257813	275.4197692871094	-1142.208740234375	-251.0852355957032	261.9113159179688	-1113.480346679688	-284.5549926757813	198.2197265625001	-1070.935302734375	-376.5425415039063	129.53759765625	-1107.982055664063	-339.4801025390626	138.0578002929688	-1024.021240234375	-449.0791625976564	116.8911361694336	-1063.189331054688	-242.6689910888672	62.37034606933595	-1038.06689453125	-236.7007141113282	58.00646591186525	-1083.5654296875	-285.6684570312501	45.85411071777344	-1136.364990234375	-362.6902160644532	675.5249023437501	-853.4898071289065	-297.0651550292969	680.8292846679689	-851.3359375000002	-280.6597595214844	709.4591064453126	-858.2236328125002	-243.2354431152344	616.2449340820314	-869.1755981445315	-135.4227447509766	553.3838500976564	-874.2918701171877	-107.0702056884766	565.0014648437501	-990.2724609375002	18.59172248840332	478.6483764648439	-881.202575683594	26.72075843811036	365.7116699218751	-871.4759521484377	57.68206024169923	400.8338623046876	-870.4025878906252	109.7837295532227	389.9405212402345	-896.5476074218752	174.8185729980469	271.6051940917969	-886.0926513671877	174.0883941650391	313.0140075683594	-964.4725341796877	179.1864776611328	202.0136718750001	-939.4407958984377	292.5946350097657	389.0047302246095	-941.3845214843752	291.0521240234376	390.6429443359376	-888.5562744140627	288.8093872070313	339.3164367675782	-845.2746582031252	-4216.743164062501	853.1226196289065	-3944.648437500001	
760	3.795	-191.7692413330078	1552.522583007813	-1108.605224609375	-365.4343261718751	1478.763427734375	-1184.066772460938	-348.1788635253907	1487.97119140625	-1032.03271484375	-410.4726562500001	1361.052856445313	-1110.68505859375	-544.1888427734376	1088.432861328125	-1066.975341796875	-265.9213867187501	1275.438842773438	-1109.86083984375	-337.9520263671876	1356.271118164063	-1243.287719726563	-244.0548095703126	1361.870849609375	-1377.756591796875	-201.3931884765626	1377.14501953125	-1362.479614257813	-190.680160522461	1365.197631835938	-1422.0341796875	-148.0678253173828	1363.134643554688	-1441.675048828125	-98.00337982177737	1301.424926757813	-1408.226196289063	111.9608001708985	1416.095581054688	-1517.629760742188	75.00955200195314	1413.827026367188	-1581.08544921875	170.680404663086	1459.821044921875	-1549.623046875	-318.4276428222657	1382.939453125	-997.7071533203127	-175.4636688232422	1396.572998046875	-884.6247558593752	-158.7975006103516	1419.979614257813	-927.081726074219	-109.5031814575196	1421.196533203125	-892.6380615234377	-65.73027801513673	1426.459228515625	-894.306823730469	-39.98852920532227	1347.4482421875	-913.1536254882815	200.551498413086	1448.765747070313	-929.382995605469	187.6951904296875	1471.62451171875	-860.3284912109377	281.0200195312501	1474.864135742188	-926.713562011719	-414.0271911621095	876.5405273437502	-1152.870483398438	-422.4383850097657	890.096862792969	-928.6655883789065	-591.5469970703126	957.7652587890627	-1049.7802734375	-607.2948608398439	930.3952636718752	-1076.619262695313	-611.5455322265626	932.301452636719	-1022.383605957031	-417.1532287597657	681.6950073242189	-1209.932861328125	-337.0260925292969	652.8060913085939	-1205.23876953125	-304.4889831542969	686.0858154296876	-1197.82666015625	-319.7993774414063	594.7583618164064	-1191.644775390625	-194.9842681884766	481.8397827148439	-1162.144897460938	-191.8499603271485	480.9442138671876	-1045.883422851563	-224.5505981445313	306.5305480957032	-1080.434936523438	-283.2882385253907	275.3901367187501	-1142.045043945313	-250.9346923828126	261.8533935546876	-1113.25830078125	-284.4820556640626	198.1953887939454	-1070.71337890625	-376.5167236328126	129.5591278076172	-1107.838989257813	-339.5175170898438	138.0049438476563	-1023.790710449219	-449.0991516113282	117.0480575561524	-1063.258666992188	-242.6649017333985	62.30298995971681	-1038.046997070313	-236.7204132080079	58.11515426635744	-1083.562377929688	-284.9923400878907	45.59169387817384	-1136.18798828125	-362.7716674804688	674.8596801757814	-853.7376098632815	-297.0995178222657	680.4118652343751	-851.343444824219	-280.6320495605469	708.8531494140626	-858.235778808594	-243.1932983398438	615.9076538085939	-869.1384887695315	-135.3106994628907	553.2313842773439	-874.309265136719	-106.9488983154297	564.8454589843751	-990.266540527344	18.41493034362793	478.7202148437501	-881.043151855469	26.97797012329102	365.4385375976563	-871.3853759765627	57.8191375732422	400.6542053222657	-870.3103637695315	109.9474487304688	390.2176818847657	-896.3089599609377	175.0287628173828	271.5431213378907	-886.0474243164065	174.5195617675782	313.0498352050782	-964.440612792969	179.7217102050782	202.3180694580079	-939.6721191406252	292.7647094726563	389.1240539550782	-941.0369262695315	291.3220825195313	390.674530029297	-888.273132324219	288.9197998046876	339.2684936523438	-844.9970703125002	-4216.826171875001	853.1391601562502	-3944.810546875001	
761	3.8	-191.7115936279297	1551.831298828125	-1108.826904296875	-365.4291687011719	1477.998046875	-1184.029907226563	-347.8252258300782	1487.332153320313	-1032.094116210938	-410.4614257812501	1360.496215820313	-1110.477416992188	-544.2922363281251	1087.880981445313	-1066.813354492188	-265.5623168945313	1274.79638671875	-1109.966552734375	-337.8660888671876	1355.715698242188	-1243.101196289063	-243.8917846679688	1361.388793945313	-1377.478759765625	-201.1569366455079	1376.554321289063	-1362.23876953125	-190.4774475097657	1364.725219726563	-1421.71435546875	-147.8882141113282	1362.606811523438	-1441.471801757813	-97.74259948730472	1300.893310546875	-1408.069702148438	112.1240463256836	1415.761352539063	-1517.385375976563	75.13365173339845	1413.634887695313	-1580.857177734375	170.9911804199219	1459.539306640625	-1549.347778320313	-318.2514953613282	1382.285766601563	-997.664001464844	-175.2140808105469	1396.019775390625	-884.705505371094	-158.8857727050782	1419.437622070313	-927.097106933594	-109.2946929931641	1420.62939453125	-892.6699829101565	-65.57579803466798	1426.135131835938	-894.5071411132815	-39.7364845275879	1347.012573242188	-913.5745239257815	200.7308502197266	1448.70361328125	-929.6939697265627	187.7640228271485	1471.532592773438	-860.7692871093752	281.1106872558594	1474.8857421875	-927.0371093750002	-414.1224060058595	876.040710449219	-1152.858154296875	-422.5691223144532	889.4628906250002	-928.715759277344	-591.6726684570314	957.1854248046877	-1049.756225585938	-607.4578247070314	929.8738403320315	-1076.571655273438	-611.5679931640626	931.747009277344	-1022.207702636719	-417.1346740722657	681.4103393554689	-1209.89794921875	-336.9155883789063	652.5235595703126	-1205.152099609375	-304.4435729980469	685.8046875000001	-1197.830200195313	-319.7307739257813	594.4559326171876	-1191.502075195313	-194.7645721435547	481.6838378906251	-1162.052612304688	-191.6571502685547	480.8883666992189	-1045.726684570313	-224.4308624267579	306.4842529296876	-1080.258056640625	-282.8376159667969	275.2256164550782	-1141.804321289063	-250.5523071289063	261.6541137695313	-1112.975708007813	-284.4429321289063	198.1523132324219	-1070.549072265625	-376.4747924804688	129.6040649414063	-1107.70458984375	-339.5802917480469	137.9693603515625	-1023.511779785156	-449.1050415039064	117.0133819580078	-1063.143188476563	-242.9259338378907	62.49668121337892	-1037.963012695313	-236.7295837402344	58.09856033325197	-1083.558227539063	-285.6522521972657	46.02648925781251	-1136.242553710938	-362.6885070800782	674.3630371093751	-853.703796386719	-297.2083129882813	679.8649902343751	-851.3181152343752	-280.6849670410157	708.6180419921876	-858.2667236328127	-243.0678863525391	615.4166870117189	-869.1577758789065	-135.1463012695313	553.0755615234376	-874.2085571289065	-106.8148345947266	564.7142333984376	-990.2429199218752	18.58545684814453	478.5537414550782	-880.9710083007815	27.10381317138673	365.2121582031251	-871.2990722656252	58.06167221069337	400.4664611816407	-870.2791137695315	110.186019897461	390.003387451172	-896.2718505859377	175.2584228515625	271.4990844726563	-885.9436645507815	174.8711242675782	313.0429687500001	-964.335144042969	180.3526916503907	202.3209991455079	-939.8674926757815	292.8863220214844	389.2758789062501	-940.7861328125002	291.5326232910157	390.5318908691407	-887.738220214844	289.1538391113282	339.2844543457032	-844.8430786132815	-4216.922851562501	853.1626586914065	-3944.757080078126	
762	3.805	-191.6251525878907	1551.16162109375	-1108.913330078125	-365.3621215820313	1477.191284179688	-1183.992065429688	-347.7664794921876	1486.699584960938	-1031.93505859375	-410.2817687988282	1359.7578125	-1110.273803710938	-544.3562622070314	1087.423583984375	-1066.69189453125	-265.5986633300782	1274.108642578125	-1109.754028320313	-337.7144165039063	1355.091674804688	-1242.897094726563	-243.7734069824219	1360.939575195313	-1377.30615234375	-201.0175781250001	1375.935668945313	-1362.021240234375	-190.3574371337891	1364.203979492188	-1421.467651367188	-147.735092163086	1362.195190429688	-1441.244384765625	-97.3797302246094	1300.34765625	-1407.787841796875	112.2427978515625	1415.668823242188	-1516.976440429688	75.24348449707033	1413.451416015625	-1580.622314453125	170.5458374023438	1459.61181640625	-1549.172607421875	-318.0970458984376	1381.61865234375	-997.6401367187502	-175.0489196777344	1395.493408203125	-884.8260498046877	-158.5355224609375	1418.938354492188	-927.1665649414065	-108.9432907104492	1420.199340820313	-892.8364257812502	-65.18598937988283	1425.60693359375	-894.7944335937502	-39.41834259033204	1346.671508789063	-913.6030273437502	200.8853454589844	1448.539428710938	-930.0369873046877	187.9219360351563	1471.392578125	-861.1254882812502	281.1950988769532	1474.970825195313	-927.4245605468752	-414.1954345703126	875.5234985351565	-1152.848022460938	-422.6320190429689	888.975280761719	-928.8474731445315	-591.8872070312501	956.6956787109377	-1049.730346679688	-607.4859008789064	929.233093261719	-1076.602661132813	-611.7730712890626	931.2487792968752	-1022.24755859375	-417.1057128906251	681.0092163085939	-1209.848876953125	-336.4140014648438	651.8959350585939	-1205.033325195313	-304.2950134277344	685.4938964843751	-1197.9052734375	-319.6072082519532	594.0466308593751	-1191.4833984375	-194.6623840332032	481.5752868652345	-1161.930419921875	-191.5943603515625	480.9016113281251	-1045.554931640625	-224.4228973388672	306.4490051269532	-1080.098510742188	-282.5785827636719	275.1259460449219	-1141.553833007813	-250.3858947753907	261.5238342285157	-1112.801025390625	-284.3857116699219	198.1051177978516	-1070.378540039063	-376.5210876464844	129.6458435058594	-1107.592041015625	-339.6366882324219	137.8973999023438	-1023.251831054688	-449.0987243652345	117.0583267211914	-1063.091552734375	-242.7307281494141	62.24708938598634	-1037.9541015625	-236.724838256836	58.13912582397462	-1083.507080078125	-285.6466674804688	46.11415100097657	-1136.194091796875	-362.6170654296876	673.7539672851564	-853.9331054687502	-297.2211608886719	679.3140258789064	-851.3052978515627	-280.7521362304688	708.1640014648439	-858.1638793945315	-243.0235748291016	615.0289306640626	-869.1739501953127	-135.0363464355469	552.8071899414064	-874.243835449219	-106.6433563232422	564.4887695312501	-990.2459716796877	18.6898307800293	478.4467773437501	-880.8790283203127	27.48789787292481	365.1881713867188	-871.442077636719	58.20848083496095	400.3894958496095	-870.2142333984377	110.4649429321289	389.9616699218751	-896.2623291015627	175.4657745361328	271.4809875488282	-885.9937744140627	175.2265014648438	313.0042724609376	-964.246032714844	180.7431335449219	202.1364135742188	-939.9260864257815	292.5657653808594	389.523651123047	-940.7453613281252	291.6716003417969	390.545623779297	-887.424011230469	289.3899230957032	339.2474670410157	-844.665466308594	-4217.539550781251	853.2422485351565	-3944.686035156251	
